<svg xmlns="http://www.w3.org/2000/svg" width="500" height="500" viewBox="0 0 500 500">
  <!-- Circle background -->
  <circle cx="250" cy="250" r="250" fill="#32462f" />

  <!-- Your logo centered inside -->
  <g transform="translate(125,125) scale(0.5)">
    <!-- 🔽 Paste your logo paths or <g> here -->
    <g transform="scale(7.7) translate(-179, -160)">
  <g clip-path="url(#f662c87321)">
    <path fill="#7a6200" d="M 197.496094 178.867188 C 197.535156 178.578125 197.386719 178.273438 197.039062 178.152344 C 195.304688 177.570312 193.558594 177.003906 191.804688 176.464844 C 192.089844 175.941406 192.289062 175.355469 192.363281 174.714844 C 192.527344 173.355469 192.207031 171.917969 191.820312 170.617188 C 191.460938 169.40625 190.90625 168.226562 190.003906 167.320312 C 188.058594 165.367188 185.09375 165.578125 182.933594 167.046875 C 181.695312 167.886719 180.691406 169.003906 179.769531 170.167969 C 178.921875 171.242188 178.109375 172.382812 177.523438 173.625 C 177.359375 173.613281 177.191406 173.609375 177.015625 173.617188 C 176.488281 173.644531 175.960938 173.703125 175.4375 173.769531 C 174.910156 172.644531 174.195312 171.597656 173.433594 170.613281 C 172.628906 169.574219 171.773438 168.546875 170.746094 167.714844 C 168.785156 166.125 165.90625 165.261719 163.671875 166.855469 C 161.558594 168.355469 160.703125 171.304688 160.5625 173.785156 C 160.507812 174.695312 160.679688 175.53125 161.023438 176.273438 C 159.394531 176.769531 157.773438 177.285156 156.15625 177.828125 C 155.820312 177.941406 155.667969 178.230469 155.6875 178.507812 C 155.546875 178.882812 155.515625 179.304688 155.464844 179.703125 C 155.378906 180.378906 155.332031 181.070312 155.324219 181.75 C 155.316406 182.453125 155.378906 183.175781 155.691406 183.8125 C 155.933594 184.300781 156.320312 184.65625 156.769531 184.929688 C 156.59375 185.820312 156.691406 186.796875 156.683594 187.679688 C 156.675781 188.921875 156.660156 190.164062 156.65625 191.40625 C 156.648438 193.855469 156.664062 196.300781 156.648438 198.75 C 156.640625 199.753906 156.429688 201.003906 156.863281 201.945312 C 157.257812 202.808594 158.128906 203.207031 158.953125 203.570312 C 161.113281 204.523438 163.21875 205.632812 165.359375 206.640625 C 167.773438 207.777344 170.21875 209.089844 172.832031 209.707031 C 172.925781 209.730469 173.007812 209.714844 173.074219 209.679688 C 173.121094 209.707031 173.171875 209.722656 173.234375 209.71875 C 175.402344 209.566406 177.53125 209.136719 179.652344 208.667969 C 182.085938 208.128906 184.527344 207.585938 186.925781 206.898438 C 187.898438 206.621094 188.871094 206.324219 189.8125 205.960938 C 191 205.5 192.128906 204.902344 193.269531 204.347656 C 194.4375 203.773438 196.074219 203.339844 196.460938 201.921875 C 196.660156 201.1875 196.558594 200.359375 196.550781 199.609375 C 196.542969 198.660156 196.542969 197.714844 196.542969 196.765625 C 196.542969 194.71875 196.539062 192.671875 196.527344 190.625 C 196.519531 189.601562 196.515625 188.578125 196.507812 187.554688 C 196.503906 186.789062 196.550781 185.984375 196.410156 185.226562 C 197.507812 184.507812 197.867188 183.382812 197.859375 182.066406 C 197.855469 181.410156 197.804688 180.753906 197.726562 180.105469 C 197.675781 179.675781 197.632812 179.257812 197.496094 178.867188 Z M 190.402344 170.410156 C 190.769531 171.464844 191.054688 172.628906 191.09375 173.75 C 191.175781 176.09375 189.449219 177.617188 187.320312 178.199219 C 184.769531 178.902344 181.902344 178.730469 179.300781 178.335938 C 179.359375 177.945312 179.367188 177.542969 179.375 177.167969 C 179.386719 176.691406 179.394531 176.167969 179.335938 175.664062 C 180.066406 175.015625 180.730469 174.289062 181.519531 173.703125 C 182.472656 172.988281 183.515625 172.457031 184.597656 171.964844 C 186.417969 171.136719 188.40625 170.070312 188.945312 168.054688 C 189.636719 168.675781 190.097656 169.542969 190.402344 170.410156 Z M 188.300781 184.101562 C 188.292969 184.941406 188.285156 185.777344 188.277344 186.617188 C 187.617188 186.792969 186.957031 186.964844 186.292969 187.132812 C 186.289062 186.351562 186.277344 185.566406 186.273438 184.785156 C 186.265625 184.050781 186.375 183.089844 186.183594 182.3125 C 186.914062 182.148438 187.644531 181.980469 188.375 181.808594 C 188.214844 182.539062 188.308594 183.417969 188.300781 184.101562 Z M 182.582031 168.988281 C 183.945312 167.722656 186.042969 166.671875 187.863281 167.378906 C 187.476562 169.730469 185.0625 170.542969 183.183594 171.480469 C 182.246094 171.949219 181.363281 172.523438 180.550781 173.191406 C 180.035156 173.613281 179.507812 174.089844 179.078125 174.628906 C 178.953125 174.355469 178.785156 174.144531 178.582031 173.992188 C 179.851562 172.269531 180.996094 170.457031 182.582031 168.988281 Z M 174.757812 175.042969 C 174.808594 175.003906 174.859375 174.972656 174.917969 174.945312 C 175 174.953125 175.085938 174.957031 175.175781 174.957031 C 175.570312 174.960938 175.96875 174.9375 176.367188 174.933594 C 176.722656 174.929688 177.125 174.867188 177.476562 174.921875 C 177.824219 174.980469 177.894531 175.1875 177.953125 175.507812 C 178.082031 176.210938 178.058594 176.976562 178.011719 177.683594 C 177.992188 177.984375 177.980469 178.347656 177.828125 178.621094 C 177.667969 178.910156 177.402344 178.929688 177.089844 178.925781 C 176.445312 178.914062 175.703125 178.890625 175.074219 178.714844 C 174.457031 178.542969 174.554688 177.496094 174.519531 176.980469 C 174.488281 176.46875 174.285156 175.417969 174.757812 175.042969 Z M 169.746094 168.578125 C 171.648438 170.046875 172.917969 172.121094 174.316406 174.039062 C 174.046875 174.152344 173.839844 174.320312 173.679688 174.523438 C 173.3125 174.101562 172.894531 173.722656 172.480469 173.378906 C 171.648438 172.6875 170.742188 172.09375 169.777344 171.613281 C 167.90625 170.679688 165.503906 169.867188 165.101562 167.535156 C 166.621094 166.96875 168.414062 167.550781 169.746094 168.578125 Z M 162.332031 171.277344 C 162.617188 170.238281 163.039062 169.203125 163.792969 168.410156 C 163.867188 168.332031 163.941406 168.261719 164.015625 168.195312 C 164.5625 170.207031 166.546875 171.269531 168.363281 172.097656 C 169.417969 172.578125 170.433594 173.09375 171.371094 173.78125 C 172.070312 174.292969 172.667969 174.914062 173.300781 175.5 C 173.292969 175.542969 173.289062 175.582031 173.285156 175.625 C 173.195312 176.480469 173.230469 177.386719 173.332031 178.242188 C 173.34375 178.332031 173.359375 178.421875 173.375 178.511719 C 171.117188 178.832031 168.738281 178.941406 166.496094 178.527344 C 164.464844 178.152344 162.238281 177.027344 161.902344 174.769531 C 161.730469 173.617188 162.027344 172.386719 162.332031 171.277344 Z M 160.871094 202.847656 C 160.117188 202.480469 159.15625 202.195312 158.492188 201.671875 C 158.148438 201.402344 158.113281 201.058594 158.109375 200.648438 C 158.105469 200.050781 158.121094 199.453125 158.125 198.859375 C 158.136719 196.523438 158.125 194.183594 158.125 191.847656 C 158.121094 190.566406 158.109375 189.289062 158.101562 188.007812 C 158.09375 187.242188 158.171875 186.394531 158.105469 185.582031 C 158.988281 185.984375 159.878906 186.375 160.773438 186.75 C 160.769531 188.769531 160.761719 190.792969 160.78125 192.816406 C 160.800781 194.859375 160.824219 196.90625 160.84375 198.949219 C 160.851562 199.972656 160.863281 200.996094 160.875 202.019531 C 160.875 202.296875 160.882812 202.578125 160.894531 202.859375 C 160.886719 202.855469 160.878906 202.851562 160.871094 202.847656 Z M 160.800781 183.5 C 160.796875 184.085938 160.789062 184.667969 160.785156 185.25 C 160.003906 184.917969 159.222656 184.585938 158.445312 184.246094 C 157.699219 183.917969 156.921875 183.613281 156.675781 182.765625 C 156.449219 181.996094 156.542969 181.101562 156.585938 180.3125 C 156.601562 179.988281 156.644531 179.636719 156.660156 179.289062 C 158.101562 179.804688 159.542969 180.320312 160.984375 180.835938 C 160.675781 181.621094 160.808594 182.695312 160.800781 183.5 Z M 158.355469 178.484375 C 159.476562 178.109375 160.601562 177.75 161.726562 177.398438 C 162.15625 177.921875 162.6875 178.378906 163.285156 178.75 C 162.632812 178.996094 161.984375 179.257812 161.339844 179.542969 C 160.34375 179.1875 159.351562 178.835938 158.355469 178.484375 Z M 164.222656 184.074219 C 164.214844 184.9375 164.203125 185.800781 164.199219 186.664062 C 163.535156 186.394531 162.875 186.125 162.210938 185.847656 C 162.207031 185.101562 162.199219 184.355469 162.191406 183.609375 C 162.1875 182.90625 162.285156 182 162.125 181.242188 C 162.835938 181.496094 163.542969 181.75 164.253906 182.003906 C 164.152344 182.683594 164.226562 183.457031 164.222656 184.074219 Z M 162.066406 203.425781 C 162.09375 202.996094 162.113281 202.5625 162.117188 202.128906 C 162.128906 201.105469 162.136719 200.082031 162.148438 199.058594 C 162.167969 196.980469 162.1875 194.898438 162.210938 192.816406 C 162.226562 190.992188 162.21875 189.167969 162.21875 187.34375 C 162.875 187.609375 163.535156 187.871094 164.195312 188.132812 C 164.1875 189.882812 164.1875 191.636719 164.203125 193.386719 C 164.222656 195.433594 164.242188 197.476562 164.265625 199.523438 C 164.273438 200.546875 164.285156 201.570312 164.292969 202.589844 C 164.300781 203.105469 164.320312 203.613281 164.359375 204.125 C 164.367188 204.269531 164.378906 204.414062 164.390625 204.558594 C 163.617188 204.179688 162.839844 203.804688 162.066406 203.425781 Z M 164.640625 180.683594 C 164.628906 180.6875 164.617188 180.695312 164.605469 180.699219 C 164.09375 180.515625 163.578125 180.335938 163.066406 180.152344 C 163.632812 179.910156 164.203125 179.675781 164.777344 179.449219 C 165.445312 179.679688 166.136719 179.828125 166.839844 179.925781 C 166.105469 180.164062 165.371094 180.417969 164.640625 180.683594 Z M 172.578125 187.527344 C 172.578125 188.300781 172.574219 189.074219 172.570312 189.851562 C 170.246094 189.015625 167.933594 188.148438 165.636719 187.238281 C 165.636719 186.21875 165.621094 185.203125 165.613281 184.183594 C 165.609375 183.683594 165.660156 183.074219 165.628906 182.492188 C 167.976562 183.332031 170.320312 184.167969 172.664062 185.003906 C 172.535156 185.828125 172.582031 186.710938 172.578125 187.527344 Z M 170.058594 207.132812 C 169.582031 206.96875 169.101562 206.769531 168.613281 206.585938 C 168.09375 206.339844 167.574219 206.09375 167.0625 205.847656 C 166.496094 205.574219 165.933594 205.304688 165.371094 205.03125 C 165.382812 204.984375 165.394531 204.941406 165.402344 204.890625 C 165.4375 204.675781 165.449219 204.453125 165.46875 204.234375 C 165.511719 203.722656 165.535156 203.210938 165.539062 202.699219 C 165.550781 201.679688 165.558594 200.65625 165.570312 199.632812 C 165.589844 197.550781 165.609375 195.46875 165.632812 193.386719 C 165.648438 191.824219 165.644531 190.261719 165.640625 188.695312 C 166.113281 188.878906 166.589844 189.0625 167.0625 189.246094 C 168.886719 189.949219 170.722656 190.628906 172.566406 191.289062 C 172.5625 193.121094 172.570312 194.957031 172.570312 196.792969 C 172.574219 198.828125 172.570312 200.863281 172.605469 202.898438 C 172.621094 203.914062 172.640625 204.933594 172.691406 205.949219 C 172.722656 206.644531 172.726562 207.363281 172.796875 208.0625 C 171.863281 207.847656 170.945312 207.445312 170.058594 207.132812 Z M 173.050781 183.695312 C 170.820312 182.902344 168.585938 182.109375 166.355469 181.320312 C 167.515625 180.902344 168.679688 180.5 169.84375 180.09375 C 171.25 180.089844 172.648438 179.953125 174.027344 179.691406 C 174.160156 179.796875 174.308594 179.886719 174.484375 179.953125 C 175.214844 180.230469 176.140625 180.234375 176.914062 180.269531 C 177.445312 180.292969 177.964844 180.214844 178.386719 179.949219 C 179.964844 180.507812 181.546875 181.046875 183.125 181.601562 C 181.308594 181.992188 179.488281 182.367188 177.667969 182.742188 C 176.128906 183.058594 174.589844 183.371094 173.050781 183.695312 Z M 184.878906 184.675781 C 184.871094 185.609375 184.859375 186.546875 184.855469 187.484375 C 182.789062 187.980469 180.710938 188.433594 178.632812 188.875 C 177.046875 189.210938 175.457031 189.535156 173.867188 189.855469 C 173.867188 189.117188 173.863281 188.378906 173.859375 187.636719 C 173.855469 186.765625 173.914062 185.8125 173.761719 184.9375 C 177.476562 184.152344 181.203125 183.410156 184.914062 182.59375 C 184.808594 183.277344 184.886719 184.054688 184.878906 184.675781 Z M 179.863281 207.148438 C 178.9375 207.363281 178.007812 207.574219 177.082031 207.804688 C 175.945312 208.007812 174.785156 208.300781 173.625 208.199219 C 173.707031 207.492188 173.710938 206.765625 173.742188 206.058594 C 173.792969 205.042969 173.816406 204.023438 173.835938 203.003906 C 173.867188 200.933594 173.867188 198.863281 173.867188 196.792969 C 173.871094 194.941406 173.878906 193.089844 173.871094 191.238281 C 177.542969 190.5 181.207031 189.738281 184.851562 188.871094 C 184.847656 190.578125 184.84375 192.285156 184.859375 193.988281 C 184.882812 196.035156 184.902344 198.078125 184.921875 200.125 C 184.933594 201.148438 184.941406 202.167969 184.953125 203.191406 C 184.957031 203.703125 184.976562 204.214844 185.015625 204.726562 C 185.035156 204.980469 185.050781 205.238281 185.089844 205.492188 C 185.109375 205.613281 185.148438 205.726562 185.191406 205.835938 C 183.425781 206.3125 181.644531 206.738281 179.863281 207.148438 Z M 181.597656 179.925781 C 182.808594 180.023438 184.035156 180.03125 185.234375 179.910156 C 185.890625 180.160156 186.546875 180.425781 187.191406 180.703125 C 186.558594 180.847656 185.925781 180.988281 185.292969 181.128906 C 184.070312 180.695312 182.839844 180.285156 181.601562 179.925781 Z M 186.792969 205.390625 C 186.539062 205.460938 186.289062 205.535156 186.035156 205.605469 C 186.042969 205.570312 186.054688 205.53125 186.058594 205.492188 C 186.09375 205.277344 186.109375 205.054688 186.125 204.835938 C 186.167969 204.324219 186.191406 203.8125 186.195312 203.300781 C 186.207031 202.277344 186.214844 201.257812 186.226562 200.234375 C 186.246094 198.152344 186.269531 196.070312 186.289062 193.988281 C 186.308594 192.167969 186.300781 190.34375 186.296875 188.523438 C 186.957031 188.359375 187.617188 188.195312 188.273438 188.019531 C 188.269531 189.820312 188.265625 191.617188 188.28125 193.414062 C 188.304688 195.460938 188.324219 197.503906 188.34375 199.550781 C 188.355469 200.574219 188.363281 201.597656 188.375 202.617188 C 188.378906 203.132812 188.398438 203.640625 188.4375 204.152344 C 188.453125 204.386719 188.46875 204.625 188.503906 204.855469 C 187.9375 205.046875 187.367188 205.222656 186.792969 205.390625 Z M 189.105469 180.175781 C 188.578125 179.941406 188.050781 179.722656 187.519531 179.515625 C 188.820312 179.179688 190.074219 178.523438 190.984375 177.574219 C 192.253906 177.960938 193.523438 178.359375 194.785156 178.773438 C 192.949219 179.332031 191.078125 179.792969 189.210938 180.234375 C 189.179688 180.210938 189.144531 180.191406 189.105469 180.175781 Z M 195.109375 187.117188 C 195.101562 187.996094 195.097656 188.871094 195.09375 189.75 C 195.082031 191.503906 195.074219 193.257812 195.074219 195.011719 C 195.070312 196.761719 195.066406 198.511719 195.082031 200.265625 C 195.089844 200.855469 195.226562 201.574219 194.707031 201.988281 C 194.195312 202.394531 193.492188 202.59375 192.910156 202.878906 C 191.789062 203.421875 190.679688 204.027344 189.527344 204.484375 C 189.535156 204.410156 189.539062 204.335938 189.546875 204.261719 C 189.589844 203.753906 189.613281 203.238281 189.617188 202.726562 C 189.628906 201.707031 189.636719 200.683594 189.648438 199.660156 C 189.667969 197.578125 189.6875 195.496094 189.710938 193.414062 C 189.730469 191.488281 189.71875 189.558594 189.71875 187.632812 C 190.183594 187.5 190.648438 187.371094 191.113281 187.230469 C 192.449219 186.835938 193.839844 186.441406 195.132812 185.875 C 195.105469 186.289062 195.109375 186.707031 195.109375 187.117188 Z M 196.5 183.246094 C 196.292969 183.832031 195.808594 184.109375 195.269531 184.347656 C 193.769531 185.007812 192.1875 185.5 190.617188 185.960938 C 190.316406 186.050781 190.011719 186.136719 189.710938 186.222656 C 189.707031 185.550781 189.699219 184.882812 189.691406 184.210938 C 189.683594 183.40625 189.816406 182.332031 189.539062 181.527344 C 190.546875 181.28125 191.554688 181.03125 192.554688 180.765625 C 193.898438 180.410156 195.234375 180.03125 196.546875 179.582031 C 196.542969 180.261719 196.648438 180.964844 196.65625 181.605469 C 196.667969 182.148438 196.683594 182.726562 196.5 183.246094 Z M 196.5 183.246094 " fill-opacity="1" fill-rule="nonzero"/>
  </g>
  <path fill="#7a6200" d="M 190.808594 185.09375 C 191.40625 185.042969 192.496094 184.882812 193.660156 184.445312 C 194.824219 184.011719 195.75 183.414062 196.234375 183.058594 C 196.339844 182.980469 196.277344 182.847656 196.148438 182.882812 C 195.570312 183.035156 194.535156 183.328125 193.398438 183.753906 C 192.265625 184.179688 191.292969 184.640625 190.757812 184.902344 C 190.636719 184.960938 190.675781 185.105469 190.808594 185.09375 Z M 190.808594 185.09375 " fill-opacity="1" fill-rule="nonzero"/>
  <path fill="#7a6200" d="M 183.695312 186.835938 C 182.769531 186.9375 181.09375 187.148438 179.203125 187.519531 C 177.316406 187.890625 175.683594 188.335938 174.789062 188.59375 C 174.589844 188.648438 174.613281 188.796875 174.820312 188.789062 C 175.75 188.746094 177.445312 188.621094 179.347656 188.246094 C 181.246094 187.871094 182.863281 187.34375 183.742188 187.027344 C 183.9375 186.957031 183.902344 186.8125 183.695312 186.835938 Z M 183.695312 186.835938 " fill-opacity="1" fill-rule="nonzero"/>
  <path fill="#7a6200" d="M 194.179688 200.035156 C 194.289062 198.824219 194.453125 196.609375 194.453125 194.082031 C 194.453125 191.554688 194.289062 189.34375 194.179688 188.132812 C 194.15625 187.863281 194.007812 187.863281 193.984375 188.132812 C 193.875 189.34375 193.710938 191.554688 193.710938 194.082031 C 193.710938 196.609375 193.875 198.824219 193.984375 200.035156 C 194.007812 200.304688 194.15625 200.304688 194.179688 200.035156 Z M 194.179688 200.035156 " fill-opacity="1" fill-rule="nonzero"/>
  <path fill="#7a6200" d="M 183.921875 204.410156 C 184.03125 203.21875 184.191406 201.046875 184.191406 198.5625 C 184.191406 196.074219 184.03125 193.902344 183.921875 192.710938 C 183.894531 192.445312 183.746094 192.445312 183.722656 192.710938 C 183.613281 193.902344 183.453125 196.074219 183.453125 198.5625 C 183.453125 201.046875 183.613281 203.21875 183.722656 204.410156 C 183.746094 204.675781 183.894531 204.675781 183.921875 204.410156 Z M 183.921875 204.410156 " fill-opacity="1" fill-rule="nonzero"/>
  <path fill="#7a6200" d="M 171.828125 205.941406 C 171.9375 204.636719 172.097656 202.253906 172.097656 199.53125 C 172.097656 196.808594 171.9375 194.425781 171.828125 193.121094 C 171.800781 192.828125 171.652344 192.828125 171.628906 193.121094 C 171.519531 194.425781 171.355469 196.808594 171.355469 199.53125 C 171.355469 202.253906 171.519531 204.636719 171.628906 205.941406 C 171.652344 206.230469 171.800781 206.230469 171.828125 205.941406 Z M 171.828125 205.941406 " fill-opacity="1" fill-rule="nonzero"/>
  <path fill="#7a6200" d="M 171.671875 188.304688 C 171.203125 188.023438 170.320312 187.554688 169.242188 187.21875 C 168.164062 186.882812 167.167969 186.765625 166.621094 186.730469 C 166.5 186.722656 166.460938 186.863281 166.570312 186.921875 C 167.058594 187.167969 167.953125 187.589844 169.019531 187.925781 C 170.085938 188.257812 171.066406 188.417969 171.609375 188.492188 C 171.730469 188.507812 171.78125 188.367188 171.675781 188.304688 Z M 171.671875 188.304688 " fill-opacity="1" fill-rule="nonzero"/>
  <path fill="#7a6200" d="M 159.726562 183.765625 C 159.296875 183.539062 158.488281 183.152344 157.925781 182.488281 C 157.785156 182.324219 157.667969 182.152344 157.582031 181.976562 C 157.492188 181.804688 157.433594 181.628906 157.402344 181.453125 C 157.332031 181.105469 157.375 180.785156 157.453125 180.566406 C 157.484375 180.46875 157.371094 180.375 157.285156 180.460938 C 157.191406 180.554688 157.09375 180.6875 157.011719 180.855469 C 156.929688 181.027344 156.867188 181.238281 156.847656 181.472656 C 156.828125 181.710938 156.855469 181.972656 156.945312 182.234375 C 157.03125 182.492188 157.171875 182.746094 157.363281 182.96875 C 157.550781 183.191406 157.769531 183.363281 157.992188 183.5 C 158.214844 183.632812 158.4375 183.726562 158.648438 183.792969 C 159.066406 183.921875 159.429688 183.949219 159.679688 183.957031 C 159.792969 183.960938 159.824219 183.816406 159.726562 183.765625 Z M 159.726562 183.765625 " fill-opacity="1" fill-rule="nonzero"/>
  <path fill="#7a6200" d="M 159.238281 199.695312 C 159.347656 198.570312 159.511719 196.519531 159.511719 194.171875 C 159.511719 191.824219 159.347656 189.769531 159.238281 188.648438 C 159.214844 188.394531 159.066406 188.394531 159.039062 188.648438 C 158.929688 189.769531 158.769531 191.824219 158.769531 194.171875 C 158.769531 196.519531 158.929688 198.570312 159.039062 199.695312 C 159.066406 199.945312 159.214844 199.945312 159.238281 199.695312 Z M 159.238281 199.695312 " fill-opacity="1" fill-rule="nonzero"/>
  <path fill="#7a6200" d="M 174.769531 192.109375 C 175.394531 192.078125 176.527344 191.976562 177.777344 191.679688 C 179.03125 191.382812 180.089844 190.964844 180.664062 190.71875 C 180.789062 190.664062 180.757812 190.519531 180.617188 190.527344 C 179.992188 190.5625 178.859375 190.664062 177.609375 190.957031 C 176.355469 191.253906 175.296875 191.671875 174.726562 191.917969 C 174.597656 191.972656 174.632812 192.117188 174.769531 192.109375 Z M 174.769531 192.109375 " fill-opacity="1" fill-rule="nonzero"/>
  <path fill="#7a6200" d="M 174.890625 193.097656 C 175.222656 193.128906 175.824219 193.152344 176.46875 192.996094 C 177.113281 192.839844 177.640625 192.542969 177.921875 192.363281 C 177.984375 192.324219 177.949219 192.179688 177.875 192.171875 C 177.542969 192.140625 176.9375 192.117188 176.296875 192.273438 C 175.652344 192.429688 175.125 192.726562 174.84375 192.90625 C 174.78125 192.945312 174.816406 193.09375 174.890625 193.097656 Z M 174.890625 193.097656 " fill-opacity="1" fill-rule="nonzero"/>
  <path fill="#7a6200" d="M 171.003906 191.5625 C 170.589844 191.296875 169.824219 190.855469 168.886719 190.519531 C 167.949219 190.183594 167.074219 190.042969 166.585938 189.988281 C 166.480469 189.972656 166.429688 190.113281 166.519531 190.171875 C 166.933594 190.4375 167.699219 190.882812 168.636719 191.214844 C 169.574219 191.550781 170.453125 191.691406 170.9375 191.75 C 171.046875 191.761719 171.09375 191.621094 171.003906 191.5625 Z M 171.003906 191.5625 " fill-opacity="1" fill-rule="nonzero"/>
  <path fill="#7a6200" d="M 170.175781 181.910156 C 170.605469 182.152344 171.210938 182.507812 172.023438 182.792969 C 172.429688 182.929688 172.894531 183.042969 173.398438 183.070312 C 173.898438 183.105469 174.429688 183.058594 174.949219 182.953125 C 175.472656 182.847656 175.957031 182.691406 176.40625 182.539062 C 176.855469 182.382812 177.273438 182.222656 177.65625 182.082031 C 178.421875 181.800781 179.074219 181.613281 179.554688 181.527344 C 179.765625 181.484375 179.765625 181.335938 179.539062 181.332031 C 179.039062 181.304688 178.320312 181.367188 177.503906 181.554688 C 177.09375 181.644531 176.65625 181.761719 176.207031 181.882812 C 175.753906 182 175.285156 182.132812 174.804688 182.226562 C 174.324219 182.324219 173.859375 182.382812 173.417969 182.382812 C 172.976562 182.394531 172.558594 182.335938 172.167969 182.257812 C 171.386719 182.097656 170.726562 181.871094 170.253906 181.730469 C 170.042969 181.664062 169.984375 181.800781 170.175781 181.910156 Z M 170.175781 181.910156 " fill-opacity="1" fill-rule="nonzero"/>
  <path fill="#7a6200" d="M 180.710938 178.015625 C 181.460938 178.082031 182.523438 178.183594 183.808594 178.167969 C 184.453125 178.160156 185.152344 178.113281 185.882812 177.996094 C 186.613281 177.875 187.398438 177.691406 188.148438 177.289062 C 188.519531 177.085938 188.867188 176.832031 189.15625 176.527344 C 189.441406 176.226562 189.675781 175.886719 189.847656 175.539062 C 190.023438 175.1875 190.144531 174.828125 190.222656 174.472656 C 190.300781 174.117188 190.339844 173.769531 190.339844 173.433594 C 190.34375 172.765625 190.226562 172.164062 190.070312 171.65625 C 189.917969 171.144531 189.726562 170.722656 189.554688 170.382812 C 189.394531 170.082031 189.261719 170.148438 189.371094 170.460938 C 189.492188 170.816406 189.617188 171.246094 189.707031 171.746094 C 189.796875 172.242188 189.84375 172.808594 189.789062 173.40625 C 189.765625 173.707031 189.707031 174.011719 189.617188 174.316406 C 189.527344 174.621094 189.402344 174.925781 189.242188 175.214844 C 189.082031 175.507812 188.875 175.777344 188.636719 176.019531 C 188.394531 176.261719 188.109375 176.464844 187.792969 176.636719 C 187.15625 176.980469 186.445312 177.175781 185.757812 177.320312 C 185.070312 177.464844 184.402344 177.554688 183.777344 177.617188 C 182.53125 177.742188 181.464844 177.777344 180.714844 177.820312 C 180.378906 177.835938 180.375 177.988281 180.710938 178.019531 Z M 180.710938 178.015625 " fill-opacity="1" fill-rule="nonzero"/>
  <path fill="#7a6200" d="M 180.0625 177.210938 C 180.578125 177.265625 181.519531 177.320312 182.570312 177.203125 C 183.625 177.082031 184.527344 176.816406 185.019531 176.652344 C 185.128906 176.613281 185.113281 176.46875 184.996094 176.457031 C 184.480469 176.402344 183.539062 176.347656 182.488281 176.464844 C 181.433594 176.585938 180.53125 176.851562 180.039062 177.015625 C 179.929688 177.054688 179.949219 177.199219 180.0625 177.210938 Z M 180.0625 177.210938 " fill-opacity="1" fill-rule="nonzero"/>
  <path fill="#7a6200" d="M 172.054688 177.796875 C 171.3125 177.726562 170.261719 177.636719 169.027344 177.480469 C 168.40625 177.398438 167.742188 177.304688 167.046875 177.175781 C 166.699219 177.113281 166.34375 177.039062 165.984375 176.960938 C 165.628906 176.882812 165.277344 176.789062 164.949219 176.65625 C 164.621094 176.523438 164.34375 176.34375 164.109375 176.121094 C 163.878906 175.894531 163.699219 175.621094 163.558594 175.328125 C 163.289062 174.742188 163.191406 174.097656 163.214844 173.507812 C 163.238281 172.914062 163.355469 172.359375 163.488281 171.871094 C 163.617188 171.382812 163.761719 170.957031 163.878906 170.601562 C 163.980469 170.285156 163.84375 170.226562 163.695312 170.527344 C 163.527344 170.859375 163.328125 171.265625 163.132812 171.753906 C 162.9375 172.238281 162.75 172.804688 162.667969 173.464844 C 162.582031 174.125 162.632812 174.871094 162.929688 175.605469 C 163.082031 175.96875 163.296875 176.328125 163.597656 176.632812 C 163.671875 176.707031 163.75 176.785156 163.835938 176.851562 C 163.917969 176.921875 164.003906 176.984375 164.097656 177.042969 C 164.277344 177.160156 164.472656 177.261719 164.667969 177.339844 C 165.0625 177.503906 165.457031 177.597656 165.835938 177.671875 C 166.210938 177.746094 166.578125 177.808594 166.941406 177.855469 C 167.660156 177.953125 168.347656 178.003906 168.980469 178.03125 C 170.246094 178.082031 171.304688 178.035156 172.050781 177.996094 C 172.386719 177.976562 172.386719 177.828125 172.054688 177.796875 Z M 172.054688 177.796875 " fill-opacity="1" fill-rule="nonzero"/>
  <path fill="#7a6200" d="M 172.355469 176.558594 C 171.933594 176.417969 171.175781 176.191406 170.300781 176.058594 C 169.425781 175.921875 168.632812 175.910156 168.1875 175.914062 C 168.089844 175.914062 168.054688 176.058594 168.140625 176.105469 C 168.535156 176.316406 169.28125 176.648438 170.1875 176.789062 C 171.09375 176.929688 171.90625 176.835938 172.34375 176.753906 C 172.441406 176.738281 172.449219 176.589844 172.355469 176.558594 Z M 172.355469 176.558594 " fill-opacity="1" fill-rule="nonzero"/>
  <path fill="#7a6200" d="M 177.207031 178.015625 C 177.273438 177.941406 177.347656 177.839844 177.40625 177.710938 C 177.464844 177.585938 177.507812 177.429688 177.535156 177.265625 C 177.558594 177.101562 177.5625 176.921875 177.554688 176.746094 C 177.550781 176.65625 177.546875 176.570312 177.535156 176.476562 C 177.523438 176.382812 177.507812 176.28125 177.476562 176.171875 C 177.445312 176.066406 177.402344 175.953125 177.335938 175.84375 C 177.269531 175.738281 177.183594 175.636719 177.078125 175.5625 C 176.875 175.410156 176.65625 175.367188 176.472656 175.359375 C 176.285156 175.355469 176.128906 175.394531 176.003906 175.4375 C 175.875 175.480469 175.773438 175.527344 175.691406 175.570312 C 175.617188 175.609375 175.644531 175.753906 175.726562 175.765625 C 175.90625 175.792969 176.164062 175.8125 176.378906 175.902344 C 176.484375 175.949219 176.582031 176.015625 176.632812 176.082031 C 176.6875 176.148438 176.726562 176.234375 176.765625 176.375 C 176.84375 176.695312 176.917969 177 176.984375 177.273438 C 177.042969 177.535156 177.058594 177.753906 177.03125 177.921875 C 177.019531 177.996094 177.144531 178.082031 177.207031 178.015625 Z M 177.207031 178.015625 " fill-opacity="1" fill-rule="nonzero"/>
  <path fill="#7a6200" d="M 180.386719 176.167969 C 180.675781 176.210938 181.195312 176.253906 181.742188 176.121094 C 182.292969 175.988281 182.738281 175.714844 182.976562 175.546875 C 183.027344 175.507812 182.996094 175.363281 182.929688 175.355469 C 182.640625 175.3125 182.121094 175.269531 181.570312 175.398438 C 181.023438 175.53125 180.578125 175.804688 180.339844 175.972656 C 180.285156 176.011719 180.320312 176.15625 180.386719 176.167969 Z M 180.386719 176.167969 " fill-opacity="1" fill-rule="nonzero"/>
  <path fill="#7a6200" d="M 172.402344 175.535156 C 172.035156 175.328125 171.355469 174.988281 170.535156 174.777344 C 169.710938 174.566406 168.953125 174.539062 168.535156 174.542969 C 168.4375 174.546875 168.402344 174.691406 168.484375 174.734375 C 168.851562 174.941406 169.527344 175.285156 170.351562 175.492188 C 171.171875 175.703125 171.929688 175.730469 172.351562 175.726562 C 172.445312 175.722656 172.480469 175.582031 172.402344 175.535156 Z M 172.402344 175.535156 " fill-opacity="1" fill-rule="nonzero"/>
  <path fill="#7a6200" d="M 181.15625 171.863281 C 181.382812 171.621094 181.707031 171.300781 182.109375 170.941406 C 182.507812 170.582031 182.988281 170.195312 183.519531 169.808594 C 184.050781 169.425781 184.570312 169.089844 185.035156 168.824219 C 185.503906 168.554688 185.910156 168.347656 186.210938 168.210938 C 186.339844 168.148438 186.304688 168.003906 186.15625 168.019531 C 185.824219 168.054688 185.351562 168.136719 184.808594 168.320312 C 184.269531 168.503906 183.660156 168.792969 183.082031 169.207031 C 182.507812 169.625 182.042969 170.113281 181.699219 170.566406 C 181.359375 171.027344 181.128906 171.445312 180.992188 171.753906 C 180.929688 171.886719 181.054688 171.96875 181.15625 171.863281 Z M 181.15625 171.863281 " fill-opacity="1" fill-rule="nonzero"/>
  <path fill="#7a6200" d="M 171.332031 171.148438 C 171.179688 170.914062 170.960938 170.589844 170.660156 170.230469 C 170.363281 169.871094 169.980469 169.472656 169.507812 169.117188 C 169.03125 168.761719 168.523438 168.507812 168.0625 168.363281 C 167.601562 168.214844 167.191406 168.171875 166.910156 168.167969 C 166.785156 168.167969 166.757812 168.3125 166.871094 168.363281 C 167.121094 168.46875 167.457031 168.636719 167.835938 168.863281 C 168.214844 169.09375 168.628906 169.386719 169.066406 169.710938 C 169.503906 170.042969 169.917969 170.355469 170.28125 170.628906 C 170.644531 170.902344 170.960938 171.128906 171.191406 171.285156 C 171.296875 171.355469 171.402344 171.25 171.332031 171.144531 Z M 171.332031 171.148438 " fill-opacity="1" fill-rule="nonzero"/>
  <g fill="#f8f7f2" fill-opacity="1">
    <g transform="translate(199.717344, 194.011818)">
      <g>
        <path d="M 9.671875 6.390625 C 8.753906 6.703125 7.660156 6.859375 6.390625 6.859375 C 6.046875 6.859375 5.6875 6.835938 5.3125 6.796875 C 4.050781 6.734375 3.039062 6.273438 2.28125 5.421875 C 1.53125 4.578125 1.25 3.582031 1.4375 2.4375 C 1.570312 1.601562 1.863281 0.894531 2.3125 0.3125 C 2.757812 -0.269531 3.222656 -0.773438 3.703125 -1.203125 C 4.742188 -2.128906 5.898438 -2.90625 7.171875 -3.53125 C 8.453125 -4.15625 9.738281 -4.738281 11.03125 -5.28125 L 11.703125 -5.578125 C 11.910156 -5.660156 12.113281 -5.742188 12.3125 -5.828125 C 12.507812 -5.910156 12.703125 -6.003906 12.890625 -6.109375 L 13.140625 -6.234375 C 13.265625 -6.304688 13.394531 -6.378906 13.53125 -6.453125 C 13.664062 -6.535156 13.785156 -6.625 13.890625 -6.71875 C 13.910156 -6.738281 13.953125 -6.796875 14.015625 -6.890625 C 14.085938 -6.984375 14.113281 -7.082031 14.09375 -7.1875 L 14.09375 -7.21875 L 14.015625 -7.3125 C 13.960938 -7.363281 13.878906 -7.390625 13.765625 -7.390625 C 13.722656 -7.390625 13.675781 -7.382812 13.625 -7.375 C 13.664062 -7.382812 13.703125 -7.394531 13.734375 -7.40625 C 13.765625 -7.414062 13.800781 -7.421875 13.84375 -7.421875 C 13.925781 -7.429688 14.003906 -7.445312 14.078125 -7.46875 C 14.160156 -7.488281 14.234375 -7.5 14.296875 -7.5 C 14.535156 -7.5 14.71875 -7.394531 14.84375 -7.1875 C 14.945312 -7.019531 14.945312 -6.863281 14.84375 -6.71875 C 14.75 -6.582031 14.609375 -6.445312 14.421875 -6.3125 L 14.328125 -6.234375 C 13.878906 -5.878906 13.394531 -5.566406 12.875 -5.296875 C 12.363281 -5.035156 11.847656 -4.773438 11.328125 -4.515625 C 11.148438 -4.429688 10.972656 -4.347656 10.796875 -4.265625 C 10.617188 -4.179688 10.4375 -4.09375 10.25 -4 C 9.132812 -3.414062 8.023438 -2.800781 6.921875 -2.15625 C 5.828125 -1.519531 4.847656 -0.75 3.984375 0.15625 C 3.210938 0.976562 2.722656 1.816406 2.515625 2.671875 C 2.273438 3.597656 2.429688 4.394531 2.984375 5.0625 C 3.523438 5.738281 4.335938 6.125 5.421875 6.21875 C 5.804688 6.25 6.191406 6.265625 6.578125 6.265625 C 8.628906 6.265625 10.707031 5.757812 12.8125 4.75 C 16.539062 2.96875 20.039062 0.347656 23.3125 -3.109375 L 23.40625 -3.203125 C 23.476562 -3.296875 23.554688 -3.382812 23.640625 -3.46875 C 23.722656 -3.550781 23.8125 -3.628906 23.90625 -3.703125 C 23.9375 -3.710938 23.976562 -3.734375 24.03125 -3.765625 C 24.082031 -3.804688 24.125 -3.828125 24.15625 -3.828125 C 24.207031 -3.742188 24.207031 -3.65625 24.15625 -3.5625 C 24.101562 -3.46875 24.0625 -3.394531 24.03125 -3.34375 C 23 -2.289062 22.019531 -1.332031 21.09375 -0.46875 C 20.175781 0.394531 19.210938 1.191406 18.203125 1.921875 C 15.941406 3.597656 13.578125 4.914062 11.109375 5.875 C 10.648438 6.050781 10.171875 6.222656 9.671875 6.390625 Z M 8.421875 -5.984375 C 8.023438 -5.878906 7.625 -5.828125 7.21875 -5.828125 C 6.769531 -5.828125 6.320312 -5.882812 5.875 -6 C 5.050781 -6.207031 4.453125 -6.5625 4.078125 -7.0625 C 3.722656 -7.550781 3.597656 -8.15625 3.703125 -8.875 C 3.847656 -9.9375 4.375 -10.941406 5.28125 -11.890625 C 8.25 -14.960938 11.65625 -16.90625 15.5 -17.71875 C 15.550781 -17.71875 15.613281 -17.722656 15.6875 -17.734375 C 15.738281 -17.753906 15.785156 -17.769531 15.828125 -17.78125 C 15.867188 -17.789062 15.914062 -17.800781 15.96875 -17.8125 C 16.3125 -17.851562 16.632812 -17.875 16.9375 -17.875 C 18.34375 -17.875 19.441406 -17.460938 20.234375 -16.640625 C 21.097656 -15.710938 21.4375 -14.425781 21.25 -12.78125 C 21.132812 -11.6875 20.894531 -10.820312 20.53125 -10.1875 C 20.394531 -9.945312 20.234375 -9.828125 20.046875 -9.828125 C 19.941406 -9.828125 19.832031 -9.863281 19.71875 -9.9375 C 19.34375 -10.144531 19.226562 -10.453125 19.375 -10.859375 C 19.425781 -11.015625 19.484375 -11.164062 19.546875 -11.3125 C 19.609375 -11.457031 19.664062 -11.601562 19.71875 -11.75 C 19.832031 -12.0625 19.945312 -12.367188 20.0625 -12.671875 C 20.175781 -12.984375 20.273438 -13.300781 20.359375 -13.625 C 20.597656 -14.738281 20.425781 -15.625 19.84375 -16.28125 C 19.28125 -16.90625 18.398438 -17.21875 17.203125 -17.21875 L 17.078125 -17.21875 C 16.285156 -17.21875 15.425781 -17.050781 14.5 -16.71875 C 10.5625 -15.257812 7.578125 -13.003906 5.546875 -9.953125 L 5.359375 -9.734375 C 5.210938 -9.503906 5.070312 -9.269531 4.9375 -9.03125 C 4.8125 -8.789062 4.75 -8.535156 4.75 -8.265625 C 4.75 -7.992188 4.867188 -7.703125 5.109375 -7.390625 C 5.640625 -6.773438 6.394531 -6.46875 7.375 -6.46875 C 7.5625 -6.46875 7.742188 -6.472656 7.921875 -6.484375 C 8.097656 -6.503906 8.265625 -6.523438 8.421875 -6.546875 C 8.898438 -6.617188 9.378906 -6.691406 9.859375 -6.765625 C 10.335938 -6.835938 10.816406 -6.910156 11.296875 -6.984375 C 11.648438 -7.046875 12.007812 -7.109375 12.375 -7.171875 C 12.75 -7.234375 13.117188 -7.289062 13.484375 -7.34375 C 13.460938 -7.34375 13.441406 -7.34375 13.421875 -7.34375 C 13.304688 -7.320312 13.203125 -7.296875 13.109375 -7.265625 C 13.015625 -7.242188 12.914062 -7.21875 12.8125 -7.1875 C 12.8125 -7.1875 12.71875 -7.15625 12.53125 -7.09375 C 12.351562 -7.039062 12.210938 -6.992188 12.109375 -6.953125 C 11.972656 -6.921875 11.835938 -6.882812 11.703125 -6.84375 C 11.566406 -6.800781 11.421875 -6.753906 11.265625 -6.703125 C 10.804688 -6.578125 10.335938 -6.453125 9.859375 -6.328125 C 9.378906 -6.210938 8.898438 -6.097656 8.421875 -5.984375 Z M 8.421875 -5.984375 "/>
      </g>
    </g>
  </g>
  <g fill="#f8f7f2" fill-opacity="1">
    <g transform="translate(222.686482, 194.011818)">
      <g>
        <path d="M 10.96875 -22.25 C 11.164062 -22.0625 11.242188 -21.882812 11.203125 -21.71875 C 11.160156 -21.5625 11.0625 -21.378906 10.90625 -21.171875 C 10.707031 -20.929688 10.515625 -20.675781 10.328125 -20.40625 C 10.148438 -20.132812 9.96875 -19.867188 9.78125 -19.609375 C 9.757812 -19.597656 9.742188 -19.582031 9.734375 -19.5625 C 9.734375 -19.539062 9.722656 -19.523438 9.703125 -19.515625 C 8.773438 -18.179688 7.894531 -16.835938 7.0625 -15.484375 C 5.175781 -12.421875 3.476562 -9.210938 1.96875 -5.859375 C 0.46875 -2.503906 -0.734375 0.960938 -1.640625 4.546875 C -2.253906 7.003906 -2.535156 9.253906 -2.484375 11.296875 C -2.484375 11.378906 -2.492188 11.460938 -2.515625 11.546875 C -2.515625 11.734375 -2.503906 11.910156 -2.484375 12.078125 C -2.472656 12.253906 -2.398438 12.410156 -2.265625 12.546875 C -2.085938 12.753906 -1.796875 12.882812 -1.390625 12.9375 C -1.316406 12.9375 -1.253906 12.972656 -1.203125 13.046875 C -1.117188 13.109375 -1.066406 13.207031 -1.046875 13.34375 C -1.035156 13.5 -1.066406 13.601562 -1.140625 13.65625 C -1.222656 13.707031 -1.3125 13.734375 -1.40625 13.734375 L -1.4375 13.734375 C -2.375 13.734375 -2.984375 13.289062 -3.265625 12.40625 C -3.398438 11.925781 -3.460938 11.460938 -3.453125 11.015625 C -3.441406 10.566406 -3.410156 10.128906 -3.359375 9.703125 L -3.34375 9.453125 C -3.113281 6.878906 -2.644531 4.390625 -1.9375 1.984375 C -1.226562 -0.421875 -0.378906 -2.753906 0.609375 -5.015625 C 1.609375 -7.285156 2.640625 -9.488281 3.703125 -11.625 C 4.609375 -13.4375 5.535156 -15.226562 6.484375 -17 C 7.429688 -18.78125 8.585938 -20.410156 9.953125 -21.890625 C 9.972656 -21.929688 10.019531 -21.992188 10.09375 -22.078125 C 10.15625 -22.160156 10.222656 -22.238281 10.296875 -22.3125 C 10.378906 -22.394531 10.472656 -22.4375 10.578125 -22.4375 C 10.679688 -22.4375 10.8125 -22.375 10.96875 -22.25 Z M 10.96875 -22.25 "/>
      </g>
    </g>
  </g>
  <g fill="#f8f7f2" fill-opacity="1">
    <g transform="translate(227.023495, 194.011818)">
      <g>
        <path d="M 9.859375 -4.390625 C 10.148438 -4.390625 10.347656 -4.328125 10.453125 -4.203125 C 10.453125 -4.160156 10.382812 -4.117188 10.25 -4.078125 C 10.019531 -4.015625 9.757812 -3.984375 9.46875 -3.984375 C 9.125 -3.984375 8.800781 -4.023438 8.5 -4.109375 C 7.789062 -4.316406 7.078125 -4.804688 6.359375 -5.578125 L 6.296875 -5.625 L 5.234375 -4.5625 C 4.722656 -4.082031 4.210938 -3.59375 3.703125 -3.09375 C 3.203125 -2.601562 2.703125 -2.113281 2.203125 -1.625 C 2.085938 -1.519531 1.960938 -1.421875 1.828125 -1.328125 C 1.703125 -1.234375 1.570312 -1.132812 1.4375 -1.03125 L 1.234375 -0.875 C 1.046875 -0.75 0.875 -0.6875 0.71875 -0.6875 C 0.5625 -0.6875 0.40625 -0.734375 0.25 -0.828125 C -0.0703125 -1.023438 -0.238281 -1.359375 -0.25 -1.828125 C -0.269531 -2.679688 -0.117188 -3.617188 0.203125 -4.640625 C 0.566406 -5.859375 0.96875 -7.117188 1.40625 -8.421875 C 1.445312 -8.535156 1.492188 -8.644531 1.546875 -8.75 C 1.609375 -8.851562 1.703125 -8.90625 1.828125 -8.90625 C 1.890625 -8.90625 1.957031 -8.890625 2.03125 -8.859375 C 2.164062 -8.785156 2.269531 -8.707031 2.34375 -8.625 C 2.382812 -8.539062 2.394531 -8.441406 2.375 -8.328125 C 2.363281 -8.210938 2.34375 -8.109375 2.3125 -8.015625 L 2.3125 -7.9375 C 2.175781 -7.40625 2.035156 -6.875 1.890625 -6.34375 C 1.753906 -5.8125 1.617188 -5.28125 1.484375 -4.75 C 1.398438 -4.425781 1.3125 -4.097656 1.21875 -3.765625 C 1.125 -3.441406 1.035156 -3.117188 0.953125 -2.796875 L 0.765625 -2.15625 C 0.703125 -1.882812 0.710938 -1.695312 0.796875 -1.59375 C 0.847656 -1.519531 0.925781 -1.484375 1.03125 -1.484375 C 1.195312 -1.484375 1.398438 -1.554688 1.640625 -1.703125 C 1.878906 -1.847656 2.09375 -2 2.28125 -2.15625 C 2.46875 -2.3125 2.5625 -2.390625 2.5625 -2.390625 C 3.09375 -2.878906 3.648438 -3.460938 4.234375 -4.140625 C 4.472656 -4.390625 4.695312 -4.660156 4.90625 -4.953125 C 5.113281 -5.242188 5.316406 -5.523438 5.515625 -5.796875 C 5.585938 -5.898438 5.679688 -6.039062 5.796875 -6.21875 C 5.921875 -6.40625 5.984375 -6.5 5.984375 -6.5 C 6.035156 -6.582031 6.085938 -6.65625 6.140625 -6.71875 C 6.203125 -6.789062 6.285156 -6.828125 6.390625 -6.828125 C 6.460938 -6.828125 6.53125 -6.8125 6.59375 -6.78125 C 6.726562 -6.726562 6.816406 -6.65625 6.859375 -6.5625 C 6.910156 -6.46875 6.941406 -6.351562 6.953125 -6.21875 C 6.972656 -6.113281 6.992188 -6.039062 7.015625 -6 C 7.160156 -5.40625 7.375 -4.992188 7.65625 -4.765625 C 7.945312 -4.535156 8.40625 -4.398438 9.03125 -4.359375 L 9.140625 -4.34375 C 9.191406 -4.34375 9.25 -4.34375 9.3125 -4.34375 C 9.382812 -4.351562 9.445312 -4.359375 9.5 -4.359375 C 9.550781 -4.378906 9.601562 -4.390625 9.65625 -4.390625 C 9.71875 -4.390625 9.785156 -4.390625 9.859375 -4.390625 Z M 9.859375 -4.390625 "/>
      </g>
    </g>
  </g>
  <g fill="#f8f7f2" fill-opacity="1">
    <g transform="translate(236.236686, 194.011818)">
      <g>
        <path d="M 13.609375 -4.3125 C 13.640625 -4.28125 13.625 -4.21875 13.5625 -4.125 C 13.507812 -4.03125 13.457031 -3.957031 13.40625 -3.90625 C 13.226562 -3.769531 13.03125 -3.644531 12.8125 -3.53125 C 12.601562 -3.414062 12.390625 -3.304688 12.171875 -3.203125 C 12.066406 -3.148438 11.960938 -3.09375 11.859375 -3.03125 C 11.753906 -2.976562 11.660156 -2.925781 11.578125 -2.875 C 11.234375 -2.6875 10.894531 -2.5 10.5625 -2.3125 C 10.226562 -2.125 9.898438 -1.925781 9.578125 -1.71875 C 8.148438 -0.84375 6.910156 0.03125 5.859375 0.90625 C 5.472656 1.226562 5.179688 1.601562 4.984375 2.03125 L 4.359375 3.34375 C 3.816406 4.46875 3.257812 5.609375 2.6875 6.765625 C 2.125 7.929688 1.507812 9.066406 0.84375 10.171875 C 0.570312 10.597656 0.242188 11.070312 -0.140625 11.59375 C -0.523438 12.113281 -0.992188 12.597656 -1.546875 13.046875 C -1.660156 13.128906 -1.789062 13.21875 -1.9375 13.3125 C -2.082031 13.40625 -2.25 13.46875 -2.4375 13.5 C -2.570312 13.550781 -2.703125 13.578125 -2.828125 13.578125 C -3.078125 13.578125 -3.296875 13.484375 -3.484375 13.296875 C -3.640625 13.160156 -3.726562 13.019531 -3.75 12.875 C -3.769531 12.726562 -3.769531 12.5625 -3.75 12.375 C -3.695312 11.976562 -3.597656 11.613281 -3.453125 11.28125 C -3.304688 10.945312 -3.15625 10.625 -3 10.3125 C -1.6875 7.820312 0.226562 5.40625 2.75 3.0625 C 3.550781 2.300781 4.175781 1.441406 4.625 0.484375 C 4.914062 -0.109375 5.210938 -0.703125 5.515625 -1.296875 C 5.828125 -1.898438 6.132812 -2.503906 6.4375 -3.109375 L 7.296875 -4.796875 L 7.0625 -4.71875 C 6.5 -4.5 5.988281 -4.222656 5.53125 -3.890625 C 5.082031 -3.554688 4.648438 -3.207031 4.234375 -2.84375 C 4.066406 -2.695312 3.890625 -2.550781 3.703125 -2.40625 C 3.523438 -2.257812 3.34375 -2.117188 3.15625 -1.984375 L 2.75 -1.671875 C 2.40625 -1.398438 2.046875 -1.140625 1.671875 -0.890625 C 1.296875 -0.640625 0.882812 -0.4375 0.4375 -0.28125 C 0.25 -0.226562 0.078125 -0.203125 -0.078125 -0.203125 C -0.335938 -0.203125 -0.585938 -0.296875 -0.828125 -0.484375 C -1.210938 -0.773438 -1.378906 -1.175781 -1.328125 -1.6875 C -1.234375 -2.476562 -0.96875 -3.144531 -0.53125 -3.6875 C -0.101562 -4.238281 0.363281 -4.738281 0.875 -5.1875 C 0.957031 -5.269531 1.0625 -5.3125 1.1875 -5.3125 C 1.300781 -5.3125 1.421875 -5.257812 1.546875 -5.15625 C 1.660156 -5.039062 1.710938 -4.9375 1.703125 -4.84375 C 1.691406 -4.75 1.644531 -4.640625 1.5625 -4.515625 C 1.476562 -4.398438 1.394531 -4.28125 1.3125 -4.15625 C 1.238281 -4.039062 1.160156 -3.921875 1.078125 -3.796875 C 0.960938 -3.628906 0.84375 -3.460938 0.71875 -3.296875 C 0.601562 -3.140625 0.492188 -2.972656 0.390625 -2.796875 C 0.347656 -2.742188 0.304688 -2.6875 0.265625 -2.625 C 0.222656 -2.570312 0.175781 -2.519531 0.125 -2.46875 C 0.0195312 -2.332031 -0.078125 -2.1875 -0.171875 -2.03125 C -0.273438 -1.875 -0.347656 -1.703125 -0.390625 -1.515625 C -0.441406 -1.296875 -0.414062 -1.125 -0.3125 -1 C -0.1875 -0.882812 -0.00390625 -0.828125 0.234375 -0.828125 C 0.347656 -0.828125 0.472656 -0.835938 0.609375 -0.859375 C 0.753906 -0.890625 0.867188 -0.921875 0.953125 -0.953125 C 1.160156 -1.035156 1.347656 -1.128906 1.515625 -1.234375 C 1.679688 -1.347656 1.851562 -1.46875 2.03125 -1.59375 C 2.425781 -1.882812 2.816406 -2.175781 3.203125 -2.46875 C 3.597656 -2.769531 3.984375 -3.066406 4.359375 -3.359375 C 4.671875 -3.597656 4.984375 -3.84375 5.296875 -4.09375 C 5.617188 -4.34375 5.929688 -4.578125 6.234375 -4.796875 C 6.285156 -4.835938 6.347656 -4.890625 6.421875 -4.953125 C 6.523438 -5.035156 6.628906 -5.113281 6.734375 -5.1875 C 6.847656 -5.269531 6.972656 -5.3125 7.109375 -5.3125 C 7.242188 -5.3125 7.398438 -5.242188 7.578125 -5.109375 C 7.765625 -4.941406 7.835938 -4.757812 7.796875 -4.5625 C 7.765625 -4.375 7.707031 -4.1875 7.625 -4 C 7.570312 -3.894531 7.535156 -3.820312 7.515625 -3.78125 C 7.453125 -3.570312 7.382812 -3.367188 7.3125 -3.171875 C 7.25 -2.972656 7.171875 -2.78125 7.078125 -2.59375 C 6.960938 -2.269531 6.84375 -1.941406 6.71875 -1.609375 C 6.601562 -1.273438 6.492188 -0.925781 6.390625 -0.5625 L 6.546875 -0.484375 C 6.566406 -0.554688 6.640625 -0.625 6.765625 -0.6875 C 6.890625 -0.757812 7.003906 -0.8125 7.109375 -0.84375 C 7.234375 -0.914062 7.3125 -0.957031 7.34375 -0.96875 L 8.21875 -1.515625 C 9.070312 -2.066406 9.941406 -2.570312 10.828125 -3.03125 C 11.296875 -3.269531 11.75 -3.492188 12.1875 -3.703125 C 12.238281 -3.734375 12.300781 -3.765625 12.375 -3.796875 C 12.445312 -3.828125 12.503906 -3.863281 12.546875 -3.90625 C 12.722656 -3.96875 12.882812 -4.035156 13.03125 -4.109375 C 13.1875 -4.191406 13.351562 -4.257812 13.53125 -4.3125 C 13.5625 -4.3125 13.585938 -4.3125 13.609375 -4.3125 Z M -2.15625 12.5 C -1.03125 11.332031 -0.0976562 10.019531 0.640625 8.5625 C 1.378906 7.113281 2.070312 5.65625 2.71875 4.1875 L 2.59375 4.03125 C 0.945312 5.414062 -0.476562 6.957031 -1.6875 8.65625 C -2 9.09375 -2.300781 9.554688 -2.59375 10.046875 C -2.882812 10.535156 -3.109375 11.082031 -3.265625 11.6875 C -3.273438 11.726562 -3.289062 11.796875 -3.3125 11.890625 C -3.363281 12.035156 -3.394531 12.191406 -3.40625 12.359375 C -3.425781 12.535156 -3.34375 12.703125 -3.15625 12.859375 C -3.039062 12.941406 -2.921875 12.984375 -2.796875 12.984375 C -2.679688 12.984375 -2.578125 12.945312 -2.484375 12.875 C -2.398438 12.800781 -2.328125 12.71875 -2.265625 12.625 C -2.210938 12.5625 -2.175781 12.519531 -2.15625 12.5 Z M -2.15625 12.5 "/>
      </g>
    </g>
  </g>
  <g fill="#f8f7f2" fill-opacity="1">
    <g transform="translate(248.529563, 194.011818)">
      <g>
        <path d="M 13.203125 -5 C 13.285156 -4.988281 13.332031 -4.972656 13.34375 -4.953125 C 13.394531 -4.867188 13.363281 -4.757812 13.25 -4.625 C 11.488281 -2.769531 9.335938 -1.144531 6.796875 0.25 L 6.625 0.328125 C 6.539062 0.398438 6.441406 0.460938 6.328125 0.515625 C 6.210938 0.566406 6.097656 0.59375 5.984375 0.59375 C 5.804688 0.59375 5.625 0.515625 5.4375 0.359375 C 5.21875 0.148438 5.113281 -0.0390625 5.125 -0.21875 C 5.132812 -0.394531 5.171875 -0.585938 5.234375 -0.796875 C 5.253906 -0.828125 5.269531 -0.859375 5.28125 -0.890625 C 5.300781 -0.929688 5.3125 -0.96875 5.3125 -1 C 5.46875 -1.550781 5.660156 -2.078125 5.890625 -2.578125 C 6.117188 -3.085938 6.351562 -3.570312 6.59375 -4.03125 C 6.59375 -4.03125 6.648438 -4.128906 6.765625 -4.328125 C 6.878906 -4.535156 7 -4.753906 7.125 -4.984375 C 7.25 -5.222656 7.335938 -5.382812 7.390625 -5.46875 C 7.390625 -5.488281 7.425781 -5.539062 7.5 -5.625 C 7.65625 -5.84375 7.785156 -6.070312 7.890625 -6.3125 C 8.003906 -6.550781 8.035156 -6.738281 7.984375 -6.875 C 7.953125 -6.96875 7.898438 -7.03125 7.828125 -7.0625 C 7.773438 -7.070312 7.734375 -7.078125 7.703125 -7.078125 C 7.523438 -7.078125 7.332031 -6.984375 7.125 -6.796875 C 6.925781 -6.609375 6.828125 -6.515625 6.828125 -6.515625 C 6.710938 -6.378906 6.59375 -6.207031 6.46875 -6 C 6.351562 -5.800781 6.285156 -5.570312 6.265625 -5.3125 L 6.265625 -5.21875 C 6.265625 -5.144531 6.257812 -5.066406 6.25 -4.984375 C 6.238281 -4.898438 6.207031 -4.859375 6.15625 -4.859375 C 6.144531 -4.859375 6.109375 -4.867188 6.046875 -4.890625 C 5.984375 -4.910156 5.898438 -4.972656 5.796875 -5.078125 L 5.71875 -5.15625 L 5.578125 -4.984375 C 5.523438 -4.941406 5.472656 -4.894531 5.421875 -4.84375 C 5.378906 -4.800781 5.34375 -4.757812 5.3125 -4.71875 C 5.101562 -4.5 4.910156 -4.28125 4.734375 -4.0625 C 4.554688 -3.851562 4.375 -3.644531 4.1875 -3.4375 C 3.769531 -2.957031 3.347656 -2.484375 2.921875 -2.015625 C 2.492188 -1.546875 2.035156 -1.101562 1.546875 -0.6875 L 1.359375 -0.546875 C 1.203125 -0.398438 1.035156 -0.265625 0.859375 -0.140625 C 0.691406 -0.0234375 0.507812 0.03125 0.3125 0.03125 C 0.132812 0.03125 -0.046875 -0.03125 -0.234375 -0.15625 C -0.585938 -0.414062 -0.753906 -0.710938 -0.734375 -1.046875 C -0.722656 -1.390625 -0.675781 -1.722656 -0.59375 -2.046875 L -0.5625 -2.203125 C -0.15625 -3.847656 0.578125 -5.257812 1.640625 -6.4375 C 2.378906 -7.257812 3.253906 -7.671875 4.265625 -7.671875 L 4.34375 -7.671875 C 4.5625 -7.671875 4.769531 -7.65625 4.96875 -7.625 C 5.175781 -7.601562 5.332031 -7.523438 5.4375 -7.390625 C 5.75 -6.941406 6.039062 -6.71875 6.3125 -6.71875 C 6.445312 -6.71875 6.566406 -6.757812 6.671875 -6.84375 C 6.773438 -6.9375 6.890625 -7.035156 7.015625 -7.140625 L 7.078125 -7.21875 C 7.234375 -7.363281 7.40625 -7.484375 7.59375 -7.578125 C 7.6875 -7.609375 7.769531 -7.632812 7.84375 -7.65625 C 7.914062 -7.6875 7.988281 -7.703125 8.0625 -7.703125 C 8.175781 -7.703125 8.296875 -7.660156 8.421875 -7.578125 C 8.554688 -7.453125 8.617188 -7.328125 8.609375 -7.203125 C 8.597656 -7.085938 8.5625 -6.960938 8.5 -6.828125 C 8.207031 -6.191406 7.914062 -5.570312 7.625 -4.96875 C 7.332031 -4.363281 7.039062 -3.757812 6.75 -3.15625 L 6.296875 -2.1875 C 6.191406 -2 6.097656 -1.800781 6.015625 -1.59375 C 5.941406 -1.382812 5.867188 -1.1875 5.796875 -1 L 5.671875 -0.609375 C 5.609375 -0.441406 5.597656 -0.316406 5.640625 -0.234375 C 5.679688 -0.179688 5.734375 -0.140625 5.796875 -0.109375 C 5.847656 -0.0859375 5.910156 -0.078125 5.984375 -0.078125 C 6.148438 -0.078125 6.34375 -0.128906 6.5625 -0.234375 C 6.789062 -0.335938 6.945312 -0.414062 7.03125 -0.46875 C 7.582031 -0.84375 8.125 -1.222656 8.65625 -1.609375 C 9.1875 -1.992188 9.695312 -2.375 10.1875 -2.75 C 10.363281 -2.863281 10.523438 -2.984375 10.671875 -3.109375 C 10.828125 -3.242188 10.992188 -3.367188 11.171875 -3.484375 C 11.273438 -3.578125 11.378906 -3.671875 11.484375 -3.765625 C 11.597656 -3.859375 11.710938 -3.945312 11.828125 -4.03125 C 11.878906 -4.082031 11.929688 -4.128906 11.984375 -4.171875 C 12.035156 -4.210938 12.097656 -4.25 12.171875 -4.28125 C 12.253906 -4.375 12.347656 -4.457031 12.453125 -4.53125 C 12.554688 -4.601562 12.660156 -4.6875 12.765625 -4.78125 L 12.859375 -4.828125 C 12.910156 -4.859375 12.96875 -4.894531 13.03125 -4.9375 C 13.09375 -4.976562 13.148438 -5 13.203125 -5 Z M 5.703125 -5.984375 C 5.867188 -6.171875 5.859375 -6.394531 5.671875 -6.65625 C 5.453125 -6.9375 5.1875 -7.078125 4.875 -7.078125 C 4.84375 -7.078125 4.8125 -7.078125 4.78125 -7.078125 C 4.351562 -6.992188 3.972656 -6.859375 3.640625 -6.671875 C 2.890625 -6.222656 2.28125 -5.664062 1.8125 -5 C 1.351562 -4.332031 0.953125 -3.675781 0.609375 -3.03125 C 0.578125 -2.957031 0.539062 -2.882812 0.5 -2.8125 C 0.457031 -2.75 0.421875 -2.6875 0.390625 -2.625 C 0.285156 -2.46875 0.1875 -2.300781 0.09375 -2.125 C 0.0078125 -1.957031 -0.0546875 -1.769531 -0.109375 -1.5625 C -0.117188 -1.476562 -0.125 -1.320312 -0.125 -1.09375 C -0.125 -0.875 -0.0664062 -0.710938 0.046875 -0.609375 C 0.0976562 -0.546875 0.164062 -0.515625 0.25 -0.515625 C 0.320312 -0.515625 0.410156 -0.539062 0.515625 -0.59375 C 1.253906 -1.050781 1.910156 -1.597656 2.484375 -2.234375 C 3.054688 -2.867188 3.609375 -3.507812 4.140625 -4.15625 C 4.390625 -4.46875 4.640625 -4.773438 4.890625 -5.078125 C 5.148438 -5.390625 5.421875 -5.691406 5.703125 -5.984375 Z M 5.703125 -5.984375 "/>
      </g>
    </g>
  </g>
  <g fill="#f8f7f2" fill-opacity="1">
    <g transform="translate(160.092475, 220.694311)">
      <g>
        <path d="M 0.671875 0 L 0.671875 -6.40625 L 2.921875 -6.40625 C 3.367188 -6.40625 3.738281 -6.332031 4.03125 -6.1875 C 4.332031 -6.039062 4.554688 -5.84375 4.703125 -5.59375 C 4.847656 -5.351562 4.921875 -5.078125 4.921875 -4.765625 C 4.921875 -4.359375 4.8125 -4.035156 4.59375 -3.796875 C 4.375 -3.554688 4.109375 -3.390625 3.796875 -3.296875 C 4.035156 -3.253906 4.25 -3.160156 4.4375 -3.015625 C 4.632812 -2.867188 4.789062 -2.6875 4.90625 -2.46875 C 5.019531 -2.25 5.078125 -2.007812 5.078125 -1.75 C 5.078125 -1.425781 4.992188 -1.128906 4.828125 -0.859375 C 4.671875 -0.597656 4.4375 -0.390625 4.125 -0.234375 C 3.820312 -0.078125 3.445312 0 3 0 Z M 1.4375 -3.59375 L 2.875 -3.59375 C 3.28125 -3.59375 3.59375 -3.6875 3.8125 -3.875 C 4.03125 -4.070312 4.140625 -4.34375 4.140625 -4.6875 C 4.140625 -5.007812 4.03125 -5.269531 3.8125 -5.46875 C 3.59375 -5.664062 3.269531 -5.765625 2.84375 -5.765625 L 1.4375 -5.765625 Z M 1.4375 -0.640625 L 2.921875 -0.640625 C 3.359375 -0.640625 3.691406 -0.738281 3.921875 -0.9375 C 4.160156 -1.144531 4.28125 -1.429688 4.28125 -1.796875 C 4.28125 -2.160156 4.15625 -2.445312 3.90625 -2.65625 C 3.65625 -2.875 3.316406 -2.984375 2.890625 -2.984375 L 1.4375 -2.984375 Z M 1.4375 -0.640625 "/>
      </g>
    </g>
  </g>
  <g fill="#f8f7f2" fill-opacity="1">
    <g transform="translate(168.238437, 220.694311)">
      <g>
        <path d="M 0.671875 0 L 0.671875 -6.40625 L 4.640625 -6.40625 L 4.640625 -5.765625 L 1.4375 -5.765625 L 1.4375 -3.53125 L 4.359375 -3.53125 L 4.359375 -2.921875 L 1.4375 -2.921875 L 1.4375 -0.625 L 4.640625 -0.625 L 4.640625 0 Z M 0.671875 0 "/>
      </g>
    </g>
  </g>
  <g fill="#f8f7f2" fill-opacity="1">
    <g transform="translate(176.037505, 220.694311)">
      <g>
        <path d="M 2.265625 0 L 2.265625 -2.4375 L 0.1875 -6.40625 L 1.046875 -6.40625 L 2.65625 -3.15625 L 4.25 -6.40625 L 5.109375 -6.40625 L 3.03125 -2.4375 L 3.03125 0 Z M 2.265625 0 "/>
      </g>
    </g>
  </g>
  <g fill="#f8f7f2" fill-opacity="1">
    <g transform="translate(183.973501, 220.694311)">
      <g>
        <path d="M 3.578125 0.109375 C 2.953125 0.109375 2.398438 -0.0234375 1.921875 -0.296875 C 1.453125 -0.578125 1.082031 -0.96875 0.8125 -1.46875 C 0.550781 -1.96875 0.421875 -2.546875 0.421875 -3.203125 C 0.421875 -3.847656 0.550781 -4.421875 0.8125 -4.921875 C 1.082031 -5.421875 1.453125 -5.8125 1.921875 -6.09375 C 2.398438 -6.375 2.953125 -6.515625 3.578125 -6.515625 C 4.210938 -6.515625 4.765625 -6.375 5.234375 -6.09375 C 5.710938 -5.8125 6.082031 -5.421875 6.34375 -4.921875 C 6.601562 -4.421875 6.734375 -3.847656 6.734375 -3.203125 C 6.734375 -2.546875 6.601562 -1.96875 6.34375 -1.46875 C 6.082031 -0.96875 5.710938 -0.578125 5.234375 -0.296875 C 4.765625 -0.0234375 4.210938 0.109375 3.578125 0.109375 Z M 3.578125 -0.5625 C 4.046875 -0.5625 4.457031 -0.664062 4.8125 -0.875 C 5.175781 -1.09375 5.457031 -1.394531 5.65625 -1.78125 C 5.851562 -2.175781 5.953125 -2.648438 5.953125 -3.203125 C 5.953125 -3.742188 5.851562 -4.207031 5.65625 -4.59375 C 5.457031 -4.988281 5.175781 -5.289062 4.8125 -5.5 C 4.457031 -5.71875 4.046875 -5.828125 3.578125 -5.828125 C 3.109375 -5.828125 2.695312 -5.71875 2.34375 -5.5 C 1.988281 -5.289062 1.710938 -4.988281 1.515625 -4.59375 C 1.316406 -4.207031 1.21875 -3.742188 1.21875 -3.203125 C 1.21875 -2.648438 1.316406 -2.175781 1.515625 -1.78125 C 1.710938 -1.394531 1.988281 -1.09375 2.34375 -0.875 C 2.695312 -0.664062 3.109375 -0.5625 3.578125 -0.5625 Z M 3.578125 -0.5625 "/>
      </g>
    </g>
  </g>
  <g fill="#f8f7f2" fill-opacity="1">
    <g transform="translate(193.780938, 220.694311)">
      <g>
        <path d="M 0.671875 0 L 0.671875 -6.40625 L 1.4375 -6.40625 L 4.859375 -1.265625 L 4.859375 -6.40625 L 5.625 -6.40625 L 5.625 0 L 4.859375 0 L 1.4375 -5.125 L 1.4375 0 Z M 0.671875 0 "/>
      </g>
    </g>
  </g>
  <g fill="#f8f7f2" fill-opacity="1">
    <g transform="translate(202.721119, 220.694311)">
      <g>
        <path d="M 0.671875 0 L 0.671875 -6.40625 L 2.640625 -6.40625 C 3.765625 -6.40625 4.59375 -6.117188 5.125 -5.546875 C 5.664062 -4.972656 5.9375 -4.1875 5.9375 -3.1875 C 5.9375 -2.195312 5.664062 -1.414062 5.125 -0.84375 C 4.59375 -0.28125 3.765625 0 2.640625 0 Z M 1.4375 -0.640625 L 2.625 -0.640625 C 3.25 -0.640625 3.742188 -0.738281 4.109375 -0.9375 C 4.472656 -1.144531 4.734375 -1.4375 4.890625 -1.8125 C 5.054688 -2.195312 5.140625 -2.65625 5.140625 -3.1875 C 5.140625 -3.71875 5.054688 -4.175781 4.890625 -4.5625 C 4.734375 -4.945312 4.472656 -5.242188 4.109375 -5.453125 C 3.742188 -5.660156 3.25 -5.765625 2.625 -5.765625 L 1.4375 -5.765625 Z M 1.4375 -0.640625 "/>
      </g>
    </g>
  </g>
  <g fill="#f8f7f2" fill-opacity="1">
    <g transform="translate(211.725204, 220.694311)">
      <g/>
    </g>
  </g>
  <g fill="#f8f7f2" fill-opacity="1">
    <g transform="translate(216.794696, 220.694311)">
      <g>
        <path d="M 3.421875 0.109375 C 2.828125 0.109375 2.300781 -0.0234375 1.84375 -0.296875 C 1.394531 -0.578125 1.046875 -0.96875 0.796875 -1.46875 C 0.546875 -1.96875 0.421875 -2.539062 0.421875 -3.1875 C 0.421875 -3.84375 0.546875 -4.421875 0.796875 -4.921875 C 1.054688 -5.421875 1.421875 -5.8125 1.890625 -6.09375 C 2.359375 -6.375 2.90625 -6.515625 3.53125 -6.515625 C 4.25 -6.515625 4.847656 -6.335938 5.328125 -5.984375 C 5.804688 -5.640625 6.117188 -5.160156 6.265625 -4.546875 L 5.375 -4.546875 C 5.289062 -4.929688 5.085938 -5.234375 4.765625 -5.453125 C 4.441406 -5.679688 4.03125 -5.796875 3.53125 -5.796875 C 3.0625 -5.796875 2.65625 -5.691406 2.3125 -5.484375 C 1.96875 -5.273438 1.695312 -4.972656 1.5 -4.578125 C 1.3125 -4.191406 1.21875 -3.726562 1.21875 -3.1875 C 1.21875 -2.644531 1.3125 -2.175781 1.5 -1.78125 C 1.6875 -1.394531 1.945312 -1.097656 2.28125 -0.890625 C 2.613281 -0.679688 3.003906 -0.578125 3.453125 -0.578125 C 4.140625 -0.578125 4.65625 -0.773438 5 -1.171875 C 5.34375 -1.566406 5.539062 -2.113281 5.59375 -2.8125 L 3.75 -2.8125 L 3.75 -3.421875 L 6.375 -3.421875 L 6.375 0 L 5.671875 0 L 5.609375 -1.046875 C 5.378906 -0.679688 5.097656 -0.394531 4.765625 -0.1875 C 4.429688 0.0078125 3.984375 0.109375 3.421875 0.109375 Z M 3.421875 0.109375 "/>
      </g>
    </g>
  </g>
  <g fill="#f8f7f2" fill-opacity="1">
    <g transform="translate(226.355651, 220.694311)">
      <g>
        <path d="M 0.671875 0 L 0.671875 -6.40625 L 1.4375 -6.40625 L 1.4375 0 Z M 0.671875 0 "/>
      </g>
    </g>
  </g>
  <g fill="#f8f7f2" fill-opacity="1">
    <g transform="translate(231.123889, 220.694311)">
      <g>
        <path d="M 0.671875 0 L 0.671875 -6.40625 L 4.578125 -6.40625 L 4.578125 -5.765625 L 1.4375 -5.765625 L 1.4375 -3.515625 L 4.109375 -3.515625 L 4.109375 -2.890625 L 1.4375 -2.890625 L 1.4375 0 Z M 0.671875 0 "/>
      </g>
    </g>
  </g>
  <g fill="#f8f7f2" fill-opacity="1">
    <g transform="translate(238.649077, 220.694311)">
      <g>
        <path d="M 2.171875 0 L 2.171875 -5.765625 L 0.265625 -5.765625 L 0.265625 -6.40625 L 4.859375 -6.40625 L 4.859375 -5.765625 L 2.9375 -5.765625 L 2.9375 0 Z M 2.171875 0 "/>
      </g>
    </g>
  </g>
  <g fill="#f8f7f2" fill-opacity="1">
    <g transform="translate(246.411626, 220.694311)">
      <g>
        <path d="M 0.671875 0 L 0.671875 -6.40625 L 1.4375 -6.40625 L 1.4375 0 Z M 0.671875 0 "/>
      </g>
    </g>
  </g>
  <g fill="#f8f7f2" fill-opacity="1">
    <g transform="translate(251.179864, 220.694311)">
      <g>
        <path d="M 0.671875 0 L 0.671875 -6.40625 L 1.4375 -6.40625 L 4.859375 -1.265625 L 4.859375 -6.40625 L 5.625 -6.40625 L 5.625 0 L 4.859375 0 L 1.4375 -5.125 L 1.4375 0 Z M 0.671875 0 "/>
      </g>
    </g>
  </g>
  <g fill="#f8f7f2" fill-opacity="1">
    <g transform="translate(260.120045, 220.694311)">
      <g>
        <path d="M 3.421875 0.109375 C 2.828125 0.109375 2.300781 -0.0234375 1.84375 -0.296875 C 1.394531 -0.578125 1.046875 -0.96875 0.796875 -1.46875 C 0.546875 -1.96875 0.421875 -2.539062 0.421875 -3.1875 C 0.421875 -3.84375 0.546875 -4.421875 0.796875 -4.921875 C 1.054688 -5.421875 1.421875 -5.8125 1.890625 -6.09375 C 2.359375 -6.375 2.90625 -6.515625 3.53125 -6.515625 C 4.25 -6.515625 4.847656 -6.335938 5.328125 -5.984375 C 5.804688 -5.640625 6.117188 -5.160156 6.265625 -4.546875 L 5.375 -4.546875 C 5.289062 -4.929688 5.085938 -5.234375 4.765625 -5.453125 C 4.441406 -5.679688 4.03125 -5.796875 3.53125 -5.796875 C 3.0625 -5.796875 2.65625 -5.691406 2.3125 -5.484375 C 1.96875 -5.273438 1.695312 -4.972656 1.5 -4.578125 C 1.3125 -4.191406 1.21875 -3.726562 1.21875 -3.1875 C 1.21875 -2.644531 1.3125 -2.175781 1.5 -1.78125 C 1.6875 -1.394531 1.945312 -1.097656 2.28125 -0.890625 C 2.613281 -0.679688 3.003906 -0.578125 3.453125 -0.578125 C 4.140625 -0.578125 4.65625 -0.773438 5 -1.171875 C 5.34375 -1.566406 5.539062 -2.113281 5.59375 -2.8125 L 3.75 -2.8125 L 3.75 -3.421875 L 6.375 -3.421875 L 6.375 0 L 5.671875 0 L 5.609375 -1.046875 C 5.378906 -0.679688 5.097656 -0.394531 4.765625 -0.1875 C 4.429688 0.0078125 3.984375 0.109375 3.421875 0.109375 Z M 3.421875 0.109375 "/>
      </g>
    </g>
  </g>
    </g>
  </g>
</svg>
